<mxfile host="app.diagrams.net" agent="Mozilla/5.0 (Macintosh; Intel Mac OS X 10_15_7) AppleWebKit/605.1.15 (KHTML, like Gecko) Version/18.1.1 Safari/605.1.15" version="25.0.3" pages="2">
  <diagram name="페이지-1" id="KFHJLUHOkolM2Zw2U5iB">
    <mxGraphModel dx="1559" dy="867" grid="0" gridSize="10" guides="1" tooltips="1" connect="1" arrows="1" fold="1" page="1" pageScale="1" pageWidth="1169" pageHeight="827" math="0" shadow="0">
      <root>
        <mxCell id="0" />
        <mxCell id="1" style="locked=1;" parent="0" />
        <mxCell id="kmTeTLYLAvfmaprUT5JL-31" value="" style="shape=mxgraph.mockup.containers.marginRect;rectMarginTop=10;strokeColor=#CCCCCC;strokeWidth=1;dashed=0;rounded=1;arcSize=5;recursiveResize=0;html=1;whiteSpace=wrap;" vertex="1" parent="1">
          <mxGeometry x="107" y="112" width="973" height="238" as="geometry" />
        </mxCell>
        <mxCell id="kmTeTLYLAvfmaprUT5JL-32" value="&amp;nbsp; Remote (origin)" style="shape=rect;strokeColor=none;fillColor=#CCCCCC;strokeWidth=1;dashed=0;rounded=1;arcSize=36;fontColor=#FFFFFF;fontSize=17;spacing=2;spacingTop=-2;align=left;autosize=1;spacingLeft=4;resizeWidth=0;resizeHeight=0;perimeter=none;html=1;whiteSpace=wrap;" vertex="1" parent="kmTeTLYLAvfmaprUT5JL-31">
          <mxGeometry y="10" width="151" height="28" as="geometry" />
        </mxCell>
        <mxCell id="kmTeTLYLAvfmaprUT5JL-34" value="" style="sketch=0;outlineConnect=0;dashed=0;verticalLabelPosition=bottom;verticalAlign=top;align=center;html=1;fontSize=12;fontStyle=0;aspect=fixed;pointerEvents=1;shape=mxgraph.aws4.git_repository;" vertex="1" parent="kmTeTLYLAvfmaprUT5JL-31">
          <mxGeometry x="3" y="17.129999999999995" width="10.57" height="13.75" as="geometry" />
        </mxCell>
        <mxCell id="kmTeTLYLAvfmaprUT5JL-40" value="" style="shape=mxgraph.mockup.containers.marginRect;rectMarginTop=10;strokeColor=#CCCCCC;strokeWidth=1;dashed=0;rounded=1;arcSize=5;recursiveResize=0;html=1;whiteSpace=wrap;" vertex="1" parent="1">
          <mxGeometry x="103" y="464" width="973" height="222" as="geometry" />
        </mxCell>
        <mxCell id="kmTeTLYLAvfmaprUT5JL-41" value="&amp;nbsp; Local" style="shape=rect;strokeColor=none;fillColor=#CCCCCC;strokeWidth=1;dashed=0;rounded=1;arcSize=36;fontColor=#FFFFFF;fontSize=17;spacing=2;spacingTop=-2;align=left;autosize=1;spacingLeft=4;resizeWidth=0;resizeHeight=0;perimeter=none;html=1;whiteSpace=wrap;" vertex="1" parent="kmTeTLYLAvfmaprUT5JL-40">
          <mxGeometry y="10" width="70" height="28" as="geometry" />
        </mxCell>
        <mxCell id="kmTeTLYLAvfmaprUT5JL-42" value="" style="sketch=0;outlineConnect=0;dashed=0;verticalLabelPosition=bottom;verticalAlign=top;align=center;html=1;fontSize=12;fontStyle=0;aspect=fixed;pointerEvents=1;shape=mxgraph.aws4.git_repository;" vertex="1" parent="kmTeTLYLAvfmaprUT5JL-40">
          <mxGeometry x="3" y="17.129999999999995" width="10.57" height="13.75" as="geometry" />
        </mxCell>
        <mxCell id="kmTeTLYLAvfmaprUT5JL-65" value="그룹" style="" parent="0" />
        <mxCell id="kmTeTLYLAvfmaprUT5JL-132" value="" style="fillColor=none;strokeColor=#147EBA;dashed=1;verticalAlign=top;fontStyle=0;fontColor=#147EBA;whiteSpace=wrap;html=1;" vertex="1" parent="kmTeTLYLAvfmaprUT5JL-65">
          <mxGeometry x="295" y="220" width="168" height="35" as="geometry" />
        </mxCell>
        <mxCell id="kmTeTLYLAvfmaprUT5JL-133" value="" style="fillColor=none;strokeColor=#147EBA;dashed=1;verticalAlign=top;fontStyle=0;fontColor=#147EBA;whiteSpace=wrap;html=1;" vertex="1" parent="kmTeTLYLAvfmaprUT5JL-65">
          <mxGeometry x="299" y="559" width="159" height="35" as="geometry" />
        </mxCell>
        <mxCell id="kmTeTLYLAvfmaprUT5JL-136" style="edgeStyle=orthogonalEdgeStyle;rounded=0;orthogonalLoop=1;jettySize=auto;html=1;entryX=0.5;entryY=0;entryDx=0;entryDy=0;strokeColor=#97D077;" edge="1" parent="kmTeTLYLAvfmaprUT5JL-65" source="kmTeTLYLAvfmaprUT5JL-134" target="kmTeTLYLAvfmaprUT5JL-135">
          <mxGeometry relative="1" as="geometry" />
        </mxCell>
        <mxCell id="kmTeTLYLAvfmaprUT5JL-137" value="Pull" style="edgeLabel;html=1;align=center;verticalAlign=middle;resizable=0;points=[];" vertex="1" connectable="0" parent="kmTeTLYLAvfmaprUT5JL-136">
          <mxGeometry x="0.1248" y="-2" relative="1" as="geometry">
            <mxPoint as="offset" />
          </mxGeometry>
        </mxCell>
        <mxCell id="kmTeTLYLAvfmaprUT5JL-134" value="" style="fillColor=none;strokeColor=#97D077;dashed=1;verticalAlign=top;fontStyle=0;fontColor=#B3FF66;whiteSpace=wrap;html=1;" vertex="1" parent="kmTeTLYLAvfmaprUT5JL-65">
          <mxGeometry x="742" y="164" width="248" height="89" as="geometry" />
        </mxCell>
        <mxCell id="kmTeTLYLAvfmaprUT5JL-135" value="" style="fillColor=none;strokeColor=#97D077;dashed=1;verticalAlign=top;fontStyle=0;fontColor=#B3FF66;whiteSpace=wrap;html=1;" vertex="1" parent="kmTeTLYLAvfmaprUT5JL-65">
          <mxGeometry x="742" y="508" width="248" height="89" as="geometry" />
        </mxCell>
        <mxCell id="kmTeTLYLAvfmaprUT5JL-145" style="edgeStyle=orthogonalEdgeStyle;rounded=0;orthogonalLoop=1;jettySize=auto;html=1;entryX=0.5;entryY=0;entryDx=0;entryDy=0;fontColor=#0066CC;strokeColor=#007FFF;" edge="1" parent="kmTeTLYLAvfmaprUT5JL-65">
          <mxGeometry relative="1" as="geometry">
            <mxPoint x="379.0344827586207" y="255.0000000000001" as="sourcePoint" />
            <mxPoint x="378.5" y="559" as="targetPoint" />
          </mxGeometry>
        </mxCell>
        <mxCell id="kmTeTLYLAvfmaprUT5JL-146" value="Pull 또는 Github에서" style="edgeLabel;html=1;align=center;verticalAlign=middle;resizable=0;points=[];fontSize=17;" vertex="1" connectable="0" parent="kmTeTLYLAvfmaprUT5JL-145">
          <mxGeometry x="-0.0082" y="2" relative="1" as="geometry">
            <mxPoint as="offset" />
          </mxGeometry>
        </mxCell>
        <mxCell id="kmTeTLYLAvfmaprUT5JL-17" value="Git commit" style="" parent="0" />
        <mxCell id="kmTeTLYLAvfmaprUT5JL-39" style="edgeStyle=orthogonalEdgeStyle;rounded=0;orthogonalLoop=1;jettySize=auto;html=1;entryX=1;entryY=0.5;entryDx=0;entryDy=0;" edge="1" parent="kmTeTLYLAvfmaprUT5JL-17" source="kmTeTLYLAvfmaprUT5JL-18" target="kmTeTLYLAvfmaprUT5JL-38">
          <mxGeometry relative="1" as="geometry" />
        </mxCell>
        <mxCell id="kmTeTLYLAvfmaprUT5JL-18" value="" style="ellipse;whiteSpace=wrap;html=1;aspect=fixed;fillColor=#d5e8d4;strokeColor=#82b366;" vertex="1" parent="kmTeTLYLAvfmaprUT5JL-17">
          <mxGeometry x="292" y="175" width="20" height="20" as="geometry" />
        </mxCell>
        <mxCell id="kmTeTLYLAvfmaprUT5JL-19" value="main(master)" style="text;html=1;align=center;verticalAlign=middle;whiteSpace=wrap;rounded=0;fontSize=11;" vertex="1" parent="kmTeTLYLAvfmaprUT5JL-17">
          <mxGeometry x="127" y="172" width="116" height="30" as="geometry" />
        </mxCell>
        <mxCell id="kmTeTLYLAvfmaprUT5JL-20" style="edgeStyle=orthogonalEdgeStyle;rounded=0;orthogonalLoop=1;jettySize=auto;html=1;entryX=0.5;entryY=1;entryDx=0;entryDy=0;" edge="1" parent="kmTeTLYLAvfmaprUT5JL-17" source="kmTeTLYLAvfmaprUT5JL-21" target="kmTeTLYLAvfmaprUT5JL-18">
          <mxGeometry relative="1" as="geometry" />
        </mxCell>
        <mxCell id="kmTeTLYLAvfmaprUT5JL-21" value="" style="ellipse;whiteSpace=wrap;html=1;aspect=fixed;fillColor=#dae8fc;strokeColor=#6c8ebf;" vertex="1" parent="kmTeTLYLAvfmaprUT5JL-17">
          <mxGeometry x="334" y="225" width="20" height="20" as="geometry" />
        </mxCell>
        <mxCell id="kmTeTLYLAvfmaprUT5JL-22" style="edgeStyle=orthogonalEdgeStyle;rounded=0;orthogonalLoop=1;jettySize=auto;html=1;entryX=1;entryY=0.5;entryDx=0;entryDy=0;" edge="1" parent="kmTeTLYLAvfmaprUT5JL-17" source="kmTeTLYLAvfmaprUT5JL-23" target="kmTeTLYLAvfmaprUT5JL-21">
          <mxGeometry relative="1" as="geometry" />
        </mxCell>
        <mxCell id="kmTeTLYLAvfmaprUT5JL-23" value="" style="ellipse;whiteSpace=wrap;html=1;aspect=fixed;fillColor=#dae8fc;strokeColor=#6c8ebf;" vertex="1" parent="kmTeTLYLAvfmaprUT5JL-17">
          <mxGeometry x="380" y="225" width="20" height="20" as="geometry" />
        </mxCell>
        <mxCell id="kmTeTLYLAvfmaprUT5JL-24" style="edgeStyle=orthogonalEdgeStyle;rounded=0;orthogonalLoop=1;jettySize=auto;html=1;entryX=1;entryY=0.5;entryDx=0;entryDy=0;" edge="1" parent="kmTeTLYLAvfmaprUT5JL-17" source="kmTeTLYLAvfmaprUT5JL-25" target="kmTeTLYLAvfmaprUT5JL-23">
          <mxGeometry relative="1" as="geometry" />
        </mxCell>
        <mxCell id="kmTeTLYLAvfmaprUT5JL-25" value="" style="ellipse;whiteSpace=wrap;html=1;aspect=fixed;fillColor=#0066CC;strokeColor=#6c8ebf;" vertex="1" parent="kmTeTLYLAvfmaprUT5JL-17">
          <mxGeometry x="426" y="225" width="20" height="20" as="geometry" />
        </mxCell>
        <mxCell id="kmTeTLYLAvfmaprUT5JL-38" value="" style="ellipse;whiteSpace=wrap;html=1;aspect=fixed;fillColor=#d5e8d4;strokeColor=#82b366;" vertex="1" parent="kmTeTLYLAvfmaprUT5JL-17">
          <mxGeometry x="249" y="175" width="20" height="20" as="geometry" />
        </mxCell>
        <mxCell id="kmTeTLYLAvfmaprUT5JL-44" style="edgeStyle=orthogonalEdgeStyle;rounded=0;orthogonalLoop=1;jettySize=auto;html=1;entryX=1;entryY=0.5;entryDx=0;entryDy=0;" edge="1" parent="kmTeTLYLAvfmaprUT5JL-17" source="kmTeTLYLAvfmaprUT5JL-45" target="kmTeTLYLAvfmaprUT5JL-46">
          <mxGeometry relative="1" as="geometry" />
        </mxCell>
        <mxCell id="kmTeTLYLAvfmaprUT5JL-45" value="" style="ellipse;whiteSpace=wrap;html=1;aspect=fixed;fillColor=#d5e8d4;strokeColor=#82b366;" vertex="1" parent="kmTeTLYLAvfmaprUT5JL-17">
          <mxGeometry x="279" y="518" width="20" height="20" as="geometry" />
        </mxCell>
        <mxCell id="kmTeTLYLAvfmaprUT5JL-46" value="" style="ellipse;whiteSpace=wrap;html=1;aspect=fixed;fillColor=#d5e8d4;strokeColor=#82b366;" vertex="1" parent="kmTeTLYLAvfmaprUT5JL-17">
          <mxGeometry x="236" y="518" width="20" height="20" as="geometry" />
        </mxCell>
        <mxCell id="kmTeTLYLAvfmaprUT5JL-47" value="Feat/A (PR브랜치)" style="text;html=1;align=center;verticalAlign=middle;whiteSpace=wrap;rounded=0;fontSize=11;" vertex="1" parent="kmTeTLYLAvfmaprUT5JL-17">
          <mxGeometry x="136" y="220" width="116" height="30" as="geometry" />
        </mxCell>
        <mxCell id="kmTeTLYLAvfmaprUT5JL-48" value="main" style="text;html=1;align=center;verticalAlign=middle;whiteSpace=wrap;rounded=0;fontSize=11;" vertex="1" parent="kmTeTLYLAvfmaprUT5JL-17">
          <mxGeometry x="134" y="513" width="58" height="30" as="geometry" />
        </mxCell>
        <mxCell id="kmTeTLYLAvfmaprUT5JL-62" style="edgeStyle=orthogonalEdgeStyle;rounded=0;orthogonalLoop=1;jettySize=auto;html=1;" edge="1" parent="kmTeTLYLAvfmaprUT5JL-17" source="kmTeTLYLAvfmaprUT5JL-49">
          <mxGeometry relative="1" as="geometry">
            <mxPoint x="290" y="584" as="targetPoint" />
          </mxGeometry>
        </mxCell>
        <mxCell id="kmTeTLYLAvfmaprUT5JL-49" value="" style="ellipse;whiteSpace=wrap;html=1;aspect=fixed;fillColor=#FFCC99;strokeColor=#FFB570;" vertex="1" parent="kmTeTLYLAvfmaprUT5JL-17">
          <mxGeometry x="328" y="630.43" width="20" height="20" as="geometry" />
        </mxCell>
        <mxCell id="kmTeTLYLAvfmaprUT5JL-50" style="edgeStyle=orthogonalEdgeStyle;rounded=0;orthogonalLoop=1;jettySize=auto;html=1;entryX=1;entryY=0.5;entryDx=0;entryDy=0;" edge="1" parent="kmTeTLYLAvfmaprUT5JL-17" source="kmTeTLYLAvfmaprUT5JL-51" target="kmTeTLYLAvfmaprUT5JL-49">
          <mxGeometry relative="1" as="geometry" />
        </mxCell>
        <mxCell id="kmTeTLYLAvfmaprUT5JL-51" value="" style="ellipse;whiteSpace=wrap;html=1;aspect=fixed;fillColor=#FFCC99;strokeColor=#FFB570;" vertex="1" parent="kmTeTLYLAvfmaprUT5JL-17">
          <mxGeometry x="374" y="630.43" width="20" height="20" as="geometry" />
        </mxCell>
        <mxCell id="kmTeTLYLAvfmaprUT5JL-55" value="my&amp;nbsp;&lt;div&gt;working branch&lt;/div&gt;" style="text;html=1;align=center;verticalAlign=middle;whiteSpace=wrap;rounded=0;fontSize=11;" vertex="1" parent="kmTeTLYLAvfmaprUT5JL-17">
          <mxGeometry x="143" y="625.43" width="84" height="30" as="geometry" />
        </mxCell>
        <mxCell id="kmTeTLYLAvfmaprUT5JL-56" style="edgeStyle=orthogonalEdgeStyle;rounded=0;orthogonalLoop=1;jettySize=auto;html=1;entryX=0.5;entryY=1;entryDx=0;entryDy=0;" edge="1" parent="kmTeTLYLAvfmaprUT5JL-17" source="kmTeTLYLAvfmaprUT5JL-57" target="kmTeTLYLAvfmaprUT5JL-45">
          <mxGeometry relative="1" as="geometry">
            <mxPoint x="272" y="576" as="targetPoint" />
          </mxGeometry>
        </mxCell>
        <mxCell id="kmTeTLYLAvfmaprUT5JL-57" value="" style="ellipse;whiteSpace=wrap;html=1;aspect=fixed;fillColor=#dae8fc;strokeColor=#6c8ebf;" vertex="1" parent="kmTeTLYLAvfmaprUT5JL-17">
          <mxGeometry x="322" y="566" width="20" height="20" as="geometry" />
        </mxCell>
        <mxCell id="kmTeTLYLAvfmaprUT5JL-58" style="edgeStyle=orthogonalEdgeStyle;rounded=0;orthogonalLoop=1;jettySize=auto;html=1;entryX=1;entryY=0.5;entryDx=0;entryDy=0;" edge="1" parent="kmTeTLYLAvfmaprUT5JL-17" source="kmTeTLYLAvfmaprUT5JL-59" target="kmTeTLYLAvfmaprUT5JL-57">
          <mxGeometry relative="1" as="geometry" />
        </mxCell>
        <mxCell id="kmTeTLYLAvfmaprUT5JL-59" value="" style="ellipse;whiteSpace=wrap;html=1;aspect=fixed;fillColor=#dae8fc;strokeColor=#6c8ebf;" vertex="1" parent="kmTeTLYLAvfmaprUT5JL-17">
          <mxGeometry x="368" y="566" width="20" height="20" as="geometry" />
        </mxCell>
        <mxCell id="kmTeTLYLAvfmaprUT5JL-60" style="edgeStyle=orthogonalEdgeStyle;rounded=0;orthogonalLoop=1;jettySize=auto;html=1;entryX=1;entryY=0.5;entryDx=0;entryDy=0;" edge="1" parent="kmTeTLYLAvfmaprUT5JL-17" source="kmTeTLYLAvfmaprUT5JL-61" target="kmTeTLYLAvfmaprUT5JL-59">
          <mxGeometry relative="1" as="geometry" />
        </mxCell>
        <mxCell id="kmTeTLYLAvfmaprUT5JL-61" value="" style="ellipse;whiteSpace=wrap;html=1;aspect=fixed;fillColor=#0066CC;strokeColor=#6c8ebf;" vertex="1" parent="kmTeTLYLAvfmaprUT5JL-17">
          <mxGeometry x="414" y="566" width="20" height="20" as="geometry" />
        </mxCell>
        <mxCell id="kmTeTLYLAvfmaprUT5JL-63" value="Feat/A" style="text;html=1;align=center;verticalAlign=middle;whiteSpace=wrap;rounded=0;fontSize=11;" vertex="1" parent="kmTeTLYLAvfmaprUT5JL-17">
          <mxGeometry x="108" y="561" width="116" height="30" as="geometry" />
        </mxCell>
        <mxCell id="kmTeTLYLAvfmaprUT5JL-85" style="edgeStyle=orthogonalEdgeStyle;rounded=0;orthogonalLoop=1;jettySize=auto;html=1;entryX=1;entryY=0.5;entryDx=0;entryDy=0;" edge="1" parent="kmTeTLYLAvfmaprUT5JL-17" source="kmTeTLYLAvfmaprUT5JL-86" target="kmTeTLYLAvfmaprUT5JL-93">
          <mxGeometry relative="1" as="geometry" />
        </mxCell>
        <mxCell id="kmTeTLYLAvfmaprUT5JL-86" value="" style="ellipse;whiteSpace=wrap;html=1;aspect=fixed;fillColor=#d5e8d4;strokeColor=#82b366;" vertex="1" parent="kmTeTLYLAvfmaprUT5JL-17">
          <mxGeometry x="791" y="175" width="20" height="20" as="geometry" />
        </mxCell>
        <mxCell id="kmTeTLYLAvfmaprUT5JL-87" style="edgeStyle=orthogonalEdgeStyle;rounded=0;orthogonalLoop=1;jettySize=auto;html=1;entryX=0.5;entryY=1;entryDx=0;entryDy=0;" edge="1" parent="kmTeTLYLAvfmaprUT5JL-17" source="kmTeTLYLAvfmaprUT5JL-88" target="kmTeTLYLAvfmaprUT5JL-86">
          <mxGeometry relative="1" as="geometry" />
        </mxCell>
        <mxCell id="kmTeTLYLAvfmaprUT5JL-88" value="" style="ellipse;whiteSpace=wrap;html=1;aspect=fixed;fillColor=#D5E8D4;strokeColor=#97D077;" vertex="1" parent="kmTeTLYLAvfmaprUT5JL-17">
          <mxGeometry x="825" y="225" width="20" height="20" as="geometry" />
        </mxCell>
        <mxCell id="kmTeTLYLAvfmaprUT5JL-89" style="edgeStyle=orthogonalEdgeStyle;rounded=0;orthogonalLoop=1;jettySize=auto;html=1;entryX=1;entryY=0.5;entryDx=0;entryDy=0;" edge="1" parent="kmTeTLYLAvfmaprUT5JL-17" source="kmTeTLYLAvfmaprUT5JL-90" target="kmTeTLYLAvfmaprUT5JL-88">
          <mxGeometry relative="1" as="geometry" />
        </mxCell>
        <mxCell id="kmTeTLYLAvfmaprUT5JL-90" value="" style="ellipse;whiteSpace=wrap;html=1;aspect=fixed;fillColor=#D5E8D4;strokeColor=#97D077;" vertex="1" parent="kmTeTLYLAvfmaprUT5JL-17">
          <mxGeometry x="875" y="225" width="20" height="20" as="geometry" />
        </mxCell>
        <mxCell id="kmTeTLYLAvfmaprUT5JL-91" style="edgeStyle=orthogonalEdgeStyle;rounded=0;orthogonalLoop=1;jettySize=auto;html=1;entryX=1;entryY=0.5;entryDx=0;entryDy=0;" edge="1" parent="kmTeTLYLAvfmaprUT5JL-17" source="kmTeTLYLAvfmaprUT5JL-92" target="kmTeTLYLAvfmaprUT5JL-90">
          <mxGeometry relative="1" as="geometry" />
        </mxCell>
        <mxCell id="kmTeTLYLAvfmaprUT5JL-92" value="" style="ellipse;whiteSpace=wrap;html=1;aspect=fixed;fillColor=#D5E8D4;strokeColor=#97D077;" vertex="1" parent="kmTeTLYLAvfmaprUT5JL-17">
          <mxGeometry x="925" y="225" width="20" height="20" as="geometry" />
        </mxCell>
        <mxCell id="kmTeTLYLAvfmaprUT5JL-93" value="" style="ellipse;whiteSpace=wrap;html=1;aspect=fixed;fillColor=#d5e8d4;strokeColor=#82b366;" vertex="1" parent="kmTeTLYLAvfmaprUT5JL-17">
          <mxGeometry x="748" y="175" width="20" height="20" as="geometry" />
        </mxCell>
        <mxCell id="kmTeTLYLAvfmaprUT5JL-95" style="edgeStyle=orthogonalEdgeStyle;rounded=0;orthogonalLoop=1;jettySize=auto;html=1;entryX=1;entryY=0.5;entryDx=0;entryDy=0;endArrow=none;endFill=0;" edge="1" parent="kmTeTLYLAvfmaprUT5JL-17" source="kmTeTLYLAvfmaprUT5JL-94" target="kmTeTLYLAvfmaprUT5JL-86">
          <mxGeometry relative="1" as="geometry" />
        </mxCell>
        <mxCell id="kmTeTLYLAvfmaprUT5JL-96" style="edgeStyle=orthogonalEdgeStyle;rounded=0;orthogonalLoop=1;jettySize=auto;html=1;entryX=1;entryY=0.5;entryDx=0;entryDy=0;" edge="1" parent="kmTeTLYLAvfmaprUT5JL-17" source="kmTeTLYLAvfmaprUT5JL-94" target="kmTeTLYLAvfmaprUT5JL-92">
          <mxGeometry relative="1" as="geometry">
            <Array as="points">
              <mxPoint x="965" y="235" />
            </Array>
          </mxGeometry>
        </mxCell>
        <mxCell id="kmTeTLYLAvfmaprUT5JL-94" value="" style="ellipse;whiteSpace=wrap;html=1;aspect=fixed;fillColor=#97D077;strokeColor=#82b366;" vertex="1" parent="kmTeTLYLAvfmaprUT5JL-17">
          <mxGeometry x="955" y="175" width="20" height="20" as="geometry" />
        </mxCell>
        <mxCell id="kmTeTLYLAvfmaprUT5JL-97" style="edgeStyle=orthogonalEdgeStyle;rounded=0;orthogonalLoop=1;jettySize=auto;html=1;entryX=1;entryY=0.5;entryDx=0;entryDy=0;" edge="1" parent="kmTeTLYLAvfmaprUT5JL-17" source="kmTeTLYLAvfmaprUT5JL-98" target="kmTeTLYLAvfmaprUT5JL-105">
          <mxGeometry relative="1" as="geometry" />
        </mxCell>
        <mxCell id="kmTeTLYLAvfmaprUT5JL-98" value="" style="ellipse;whiteSpace=wrap;html=1;aspect=fixed;fillColor=#d5e8d4;strokeColor=#82b366;" vertex="1" parent="kmTeTLYLAvfmaprUT5JL-17">
          <mxGeometry x="794" y="521" width="20" height="20" as="geometry" />
        </mxCell>
        <mxCell id="kmTeTLYLAvfmaprUT5JL-99" style="edgeStyle=orthogonalEdgeStyle;rounded=0;orthogonalLoop=1;jettySize=auto;html=1;entryX=0.5;entryY=1;entryDx=0;entryDy=0;" edge="1" parent="kmTeTLYLAvfmaprUT5JL-17" source="kmTeTLYLAvfmaprUT5JL-100" target="kmTeTLYLAvfmaprUT5JL-98">
          <mxGeometry relative="1" as="geometry" />
        </mxCell>
        <mxCell id="kmTeTLYLAvfmaprUT5JL-100" value="" style="ellipse;whiteSpace=wrap;html=1;aspect=fixed;fillColor=#D5E8D4;strokeColor=#97D077;" vertex="1" parent="kmTeTLYLAvfmaprUT5JL-17">
          <mxGeometry x="828" y="571" width="20" height="20" as="geometry" />
        </mxCell>
        <mxCell id="kmTeTLYLAvfmaprUT5JL-101" style="edgeStyle=orthogonalEdgeStyle;rounded=0;orthogonalLoop=1;jettySize=auto;html=1;entryX=1;entryY=0.5;entryDx=0;entryDy=0;" edge="1" parent="kmTeTLYLAvfmaprUT5JL-17" source="kmTeTLYLAvfmaprUT5JL-102" target="kmTeTLYLAvfmaprUT5JL-100">
          <mxGeometry relative="1" as="geometry" />
        </mxCell>
        <mxCell id="kmTeTLYLAvfmaprUT5JL-102" value="" style="ellipse;whiteSpace=wrap;html=1;aspect=fixed;fillColor=#D5E8D4;strokeColor=#97D077;" vertex="1" parent="kmTeTLYLAvfmaprUT5JL-17">
          <mxGeometry x="878" y="571" width="20" height="20" as="geometry" />
        </mxCell>
        <mxCell id="kmTeTLYLAvfmaprUT5JL-103" style="edgeStyle=orthogonalEdgeStyle;rounded=0;orthogonalLoop=1;jettySize=auto;html=1;entryX=1;entryY=0.5;entryDx=0;entryDy=0;" edge="1" parent="kmTeTLYLAvfmaprUT5JL-17" source="kmTeTLYLAvfmaprUT5JL-104" target="kmTeTLYLAvfmaprUT5JL-102">
          <mxGeometry relative="1" as="geometry" />
        </mxCell>
        <mxCell id="kmTeTLYLAvfmaprUT5JL-104" value="" style="ellipse;whiteSpace=wrap;html=1;aspect=fixed;fillColor=#D5E8D4;strokeColor=#97D077;" vertex="1" parent="kmTeTLYLAvfmaprUT5JL-17">
          <mxGeometry x="928" y="571" width="20" height="20" as="geometry" />
        </mxCell>
        <mxCell id="kmTeTLYLAvfmaprUT5JL-105" value="" style="ellipse;whiteSpace=wrap;html=1;aspect=fixed;fillColor=#d5e8d4;strokeColor=#82b366;" vertex="1" parent="kmTeTLYLAvfmaprUT5JL-17">
          <mxGeometry x="751" y="521" width="20" height="20" as="geometry" />
        </mxCell>
        <mxCell id="kmTeTLYLAvfmaprUT5JL-106" style="edgeStyle=orthogonalEdgeStyle;rounded=0;orthogonalLoop=1;jettySize=auto;html=1;entryX=1;entryY=0.5;entryDx=0;entryDy=0;endArrow=none;endFill=0;" edge="1" parent="kmTeTLYLAvfmaprUT5JL-17" source="kmTeTLYLAvfmaprUT5JL-108" target="kmTeTLYLAvfmaprUT5JL-98">
          <mxGeometry relative="1" as="geometry" />
        </mxCell>
        <mxCell id="kmTeTLYLAvfmaprUT5JL-107" style="edgeStyle=orthogonalEdgeStyle;rounded=0;orthogonalLoop=1;jettySize=auto;html=1;entryX=1;entryY=0.5;entryDx=0;entryDy=0;" edge="1" parent="kmTeTLYLAvfmaprUT5JL-17" source="kmTeTLYLAvfmaprUT5JL-108" target="kmTeTLYLAvfmaprUT5JL-104">
          <mxGeometry relative="1" as="geometry">
            <Array as="points">
              <mxPoint x="968" y="581" />
            </Array>
          </mxGeometry>
        </mxCell>
        <mxCell id="kmTeTLYLAvfmaprUT5JL-108" value="" style="ellipse;whiteSpace=wrap;html=1;aspect=fixed;fillColor=#97D077;strokeColor=#82b366;" vertex="1" parent="kmTeTLYLAvfmaprUT5JL-17">
          <mxGeometry x="958" y="521" width="20" height="20" as="geometry" />
        </mxCell>
        <mxCell id="kmTeTLYLAvfmaprUT5JL-129" style="edgeStyle=orthogonalEdgeStyle;rounded=0;orthogonalLoop=1;jettySize=auto;html=1;" edge="1" parent="kmTeTLYLAvfmaprUT5JL-17" source="kmTeTLYLAvfmaprUT5JL-125" target="kmTeTLYLAvfmaprUT5JL-128">
          <mxGeometry relative="1" as="geometry" />
        </mxCell>
        <mxCell id="kmTeTLYLAvfmaprUT5JL-125" value="Code Review" style="sketch=0;pointerEvents=1;shadow=0;dashed=0;html=1;strokeColor=none;fillColor=#505050;labelPosition=center;verticalLabelPosition=bottom;verticalAlign=top;outlineConnect=0;align=center;shape=mxgraph.office.users.meeting;" vertex="1" parent="kmTeTLYLAvfmaprUT5JL-17">
          <mxGeometry x="502" y="382" width="59" height="38" as="geometry" />
        </mxCell>
        <mxCell id="kmTeTLYLAvfmaprUT5JL-128" value="merge" style="shape=image;html=1;verticalAlign=top;verticalLabelPosition=bottom;labelBackgroundColor=none;imageAspect=0;aspect=fixed;image=https://cdn0.iconfinder.com/data/icons/phosphor-bold-vol-3-1/256/git-merge-duotone-128.png;imageBackground=none;fontColor=#000000;imageBorder=none;" vertex="1" parent="kmTeTLYLAvfmaprUT5JL-17">
          <mxGeometry x="597" y="380" width="40" height="40" as="geometry" />
        </mxCell>
        <mxCell id="kmTeTLYLAvfmaprUT5JL-130" value="main(master)" style="text;html=1;align=center;verticalAlign=middle;whiteSpace=wrap;rounded=0;fontSize=11;" vertex="1" parent="kmTeTLYLAvfmaprUT5JL-17">
          <mxGeometry x="637" y="171" width="116" height="30" as="geometry" />
        </mxCell>
        <mxCell id="kmTeTLYLAvfmaprUT5JL-131" value="main" style="text;html=1;align=center;verticalAlign=middle;whiteSpace=wrap;rounded=0;fontSize=11;" vertex="1" parent="kmTeTLYLAvfmaprUT5JL-17">
          <mxGeometry x="676" y="516" width="62" height="30" as="geometry" />
        </mxCell>
        <mxCell id="kmTeTLYLAvfmaprUT5JL-138" value="my branch" style="text;html=1;align=center;verticalAlign=middle;whiteSpace=wrap;rounded=0;fontSize=11;" vertex="1" parent="kmTeTLYLAvfmaprUT5JL-17">
          <mxGeometry x="657" y="625.43" width="84" height="30" as="geometry" />
        </mxCell>
        <mxCell id="kmTeTLYLAvfmaprUT5JL-139" style="edgeStyle=orthogonalEdgeStyle;rounded=0;orthogonalLoop=1;jettySize=auto;html=1;" edge="1" parent="kmTeTLYLAvfmaprUT5JL-17" source="kmTeTLYLAvfmaprUT5JL-140">
          <mxGeometry relative="1" as="geometry">
            <mxPoint x="804" y="584" as="targetPoint" />
          </mxGeometry>
        </mxCell>
        <mxCell id="kmTeTLYLAvfmaprUT5JL-140" value="" style="ellipse;whiteSpace=wrap;html=1;aspect=fixed;fillColor=#FFCC99;strokeColor=#FFB570;" vertex="1" parent="kmTeTLYLAvfmaprUT5JL-17">
          <mxGeometry x="842" y="630.43" width="20" height="20" as="geometry" />
        </mxCell>
        <mxCell id="kmTeTLYLAvfmaprUT5JL-141" style="edgeStyle=orthogonalEdgeStyle;rounded=0;orthogonalLoop=1;jettySize=auto;html=1;entryX=1;entryY=0.5;entryDx=0;entryDy=0;" edge="1" parent="kmTeTLYLAvfmaprUT5JL-17" source="kmTeTLYLAvfmaprUT5JL-142" target="kmTeTLYLAvfmaprUT5JL-140">
          <mxGeometry relative="1" as="geometry" />
        </mxCell>
        <mxCell id="kmTeTLYLAvfmaprUT5JL-142" value="" style="ellipse;whiteSpace=wrap;html=1;aspect=fixed;fillColor=#FFCC99;strokeColor=#FFB570;" vertex="1" parent="kmTeTLYLAvfmaprUT5JL-17">
          <mxGeometry x="888" y="630.43" width="20" height="20" as="geometry" />
        </mxCell>
        <mxCell id="kmTeTLYLAvfmaprUT5JL-143" value="" style="endArrow=none;dashed=1;html=1;dashPattern=1 3;strokeWidth=2;rounded=0;" edge="1" parent="kmTeTLYLAvfmaprUT5JL-17">
          <mxGeometry width="50" height="50" relative="1" as="geometry">
            <mxPoint x="473" y="753" as="sourcePoint" />
            <mxPoint x="476" y="91" as="targetPoint" />
          </mxGeometry>
        </mxCell>
        <mxCell id="kmTeTLYLAvfmaprUT5JL-144" value="" style="endArrow=none;dashed=1;html=1;dashPattern=1 3;strokeWidth=2;rounded=0;" edge="1" parent="kmTeTLYLAvfmaprUT5JL-17">
          <mxGeometry width="50" height="50" relative="1" as="geometry">
            <mxPoint x="639" y="749" as="sourcePoint" />
            <mxPoint x="642" y="87" as="targetPoint" />
          </mxGeometry>
        </mxCell>
        <mxCell id="Ic_B8axG8Scn8T9Hybee-6" value="3" style="text;html=1;align=center;verticalAlign=middle;whiteSpace=wrap;rounded=0;fontSize=28;fontColor=#FF3333;" vertex="1" parent="kmTeTLYLAvfmaprUT5JL-17">
          <mxGeometry x="794" y="382" width="60" height="30" as="geometry" />
        </mxCell>
        <mxCell id="Ic_B8axG8Scn8T9Hybee-8" value="2" style="text;html=1;align=center;verticalAlign=middle;whiteSpace=wrap;rounded=0;fontSize=28;fontColor=#FF3333;" vertex="1" parent="kmTeTLYLAvfmaprUT5JL-17">
          <mxGeometry x="537" y="352" width="60" height="30" as="geometry" />
        </mxCell>
        <mxCell id="Ic_B8axG8Scn8T9Hybee-9" value="1" style="text;html=1;align=center;verticalAlign=middle;whiteSpace=wrap;rounded=0;fontSize=28;fontColor=#FF3333;" vertex="1" parent="kmTeTLYLAvfmaprUT5JL-17">
          <mxGeometry x="252" y="390" width="60" height="30" as="geometry" />
        </mxCell>
      </root>
    </mxGraphModel>
  </diagram>
  <diagram name="페이지-2" id="nQPLfSlDRqrCvHDM1HFt">
    <mxGraphModel dx="1299" dy="723" grid="0" gridSize="10" guides="1" tooltips="1" connect="1" arrows="1" fold="1" page="1" pageScale="1" pageWidth="1169" pageHeight="827" math="0" shadow="0">
      <root>
        <mxCell id="s8dgwefTogZsXasLWYkl-0" />
        <mxCell id="s8dgwefTogZsXasLWYkl-1" style="locked=1;" parent="s8dgwefTogZsXasLWYkl-0" />
        <mxCell id="s8dgwefTogZsXasLWYkl-2" value="" style="shape=mxgraph.mockup.containers.marginRect;rectMarginTop=10;strokeColor=#CCCCCC;strokeWidth=1;dashed=0;rounded=1;arcSize=5;recursiveResize=0;html=1;whiteSpace=wrap;" vertex="1" parent="s8dgwefTogZsXasLWYkl-1">
          <mxGeometry x="107" y="112" width="973" height="238" as="geometry" />
        </mxCell>
        <mxCell id="s8dgwefTogZsXasLWYkl-3" value="&amp;nbsp; Remote (origin)" style="shape=rect;strokeColor=none;fillColor=#CCCCCC;strokeWidth=1;dashed=0;rounded=1;arcSize=36;fontColor=#FFFFFF;fontSize=17;spacing=2;spacingTop=-2;align=left;autosize=1;spacingLeft=4;resizeWidth=0;resizeHeight=0;perimeter=none;html=1;whiteSpace=wrap;" vertex="1" parent="s8dgwefTogZsXasLWYkl-2">
          <mxGeometry y="10" width="151" height="28" as="geometry" />
        </mxCell>
        <mxCell id="s8dgwefTogZsXasLWYkl-4" value="" style="sketch=0;outlineConnect=0;dashed=0;verticalLabelPosition=bottom;verticalAlign=top;align=center;html=1;fontSize=12;fontStyle=0;aspect=fixed;pointerEvents=1;shape=mxgraph.aws4.git_repository;" vertex="1" parent="s8dgwefTogZsXasLWYkl-2">
          <mxGeometry x="3" y="17.129999999999995" width="10.57" height="13.75" as="geometry" />
        </mxCell>
        <mxCell id="s8dgwefTogZsXasLWYkl-5" value="" style="shape=mxgraph.mockup.containers.marginRect;rectMarginTop=10;strokeColor=#CCCCCC;strokeWidth=1;dashed=0;rounded=1;arcSize=5;recursiveResize=0;html=1;whiteSpace=wrap;" vertex="1" parent="s8dgwefTogZsXasLWYkl-1">
          <mxGeometry x="103" y="464" width="973" height="222" as="geometry" />
        </mxCell>
        <mxCell id="s8dgwefTogZsXasLWYkl-6" value="&amp;nbsp; Local" style="shape=rect;strokeColor=none;fillColor=#CCCCCC;strokeWidth=1;dashed=0;rounded=1;arcSize=36;fontColor=#FFFFFF;fontSize=17;spacing=2;spacingTop=-2;align=left;autosize=1;spacingLeft=4;resizeWidth=0;resizeHeight=0;perimeter=none;html=1;whiteSpace=wrap;" vertex="1" parent="s8dgwefTogZsXasLWYkl-5">
          <mxGeometry y="10" width="70" height="28" as="geometry" />
        </mxCell>
        <mxCell id="s8dgwefTogZsXasLWYkl-7" value="" style="sketch=0;outlineConnect=0;dashed=0;verticalLabelPosition=bottom;verticalAlign=top;align=center;html=1;fontSize=12;fontStyle=0;aspect=fixed;pointerEvents=1;shape=mxgraph.aws4.git_repository;" vertex="1" parent="s8dgwefTogZsXasLWYkl-5">
          <mxGeometry x="3" y="17.129999999999995" width="10.57" height="13.75" as="geometry" />
        </mxCell>
        <mxCell id="s8dgwefTogZsXasLWYkl-8" value="그룹" style="" parent="s8dgwefTogZsXasLWYkl-0" />
        <mxCell id="d4VYcWdYsv8UEWW1yeKA-4" value="merge" style="edgeStyle=orthogonalEdgeStyle;rounded=0;orthogonalLoop=1;jettySize=auto;html=1;entryX=1;entryY=0.5;entryDx=0;entryDy=0;strokeWidth=4;strokeColor=#FF9933;fontSize=22;" edge="1" parent="s8dgwefTogZsXasLWYkl-8" source="d4VYcWdYsv8UEWW1yeKA-2" target="d4VYcWdYsv8UEWW1yeKA-3">
          <mxGeometry x="-0.1734" y="-10" relative="1" as="geometry">
            <Array as="points">
              <mxPoint x="476" y="553" />
              <mxPoint x="476" y="635" />
              <mxPoint x="404" y="635" />
              <mxPoint x="404" y="638" />
            </Array>
            <mxPoint y="1" as="offset" />
          </mxGeometry>
        </mxCell>
        <mxCell id="d4VYcWdYsv8UEWW1yeKA-2" value="" style="rounded=1;arcSize=10;dashed=1;strokeColor=#F59D56;fillColor=none;gradientColor=none;dashPattern=8 4;strokeWidth=2;" vertex="1" parent="s8dgwefTogZsXasLWYkl-8">
          <mxGeometry x="259" y="510" width="176" height="85" as="geometry" />
        </mxCell>
        <mxCell id="d4VYcWdYsv8UEWW1yeKA-3" value="" style="rounded=1;arcSize=10;dashed=1;strokeColor=#F59D56;fillColor=none;gradientColor=none;dashPattern=8 4;strokeWidth=2;" vertex="1" parent="s8dgwefTogZsXasLWYkl-8">
          <mxGeometry x="264" y="616" width="120" height="43" as="geometry" />
        </mxCell>
        <mxCell id="d4VYcWdYsv8UEWW1yeKA-40" value="" style="rounded=1;arcSize=10;dashed=1;fillColor=none;gradientColor=none;dashPattern=8 3 1 3;strokeWidth=2;strokeColor=#3399FF;" vertex="1" parent="s8dgwefTogZsXasLWYkl-8">
          <mxGeometry x="748" y="600" width="319" height="59.5" as="geometry" />
        </mxCell>
        <mxCell id="s8dgwefTogZsXasLWYkl-17" value="Git commit" style="" parent="s8dgwefTogZsXasLWYkl-0" />
        <mxCell id="s8dgwefTogZsXasLWYkl-45" style="edgeStyle=orthogonalEdgeStyle;rounded=0;orthogonalLoop=1;jettySize=auto;html=1;entryX=1;entryY=0.5;entryDx=0;entryDy=0;" edge="1" parent="s8dgwefTogZsXasLWYkl-17" source="s8dgwefTogZsXasLWYkl-46" target="s8dgwefTogZsXasLWYkl-53">
          <mxGeometry relative="1" as="geometry" />
        </mxCell>
        <mxCell id="s8dgwefTogZsXasLWYkl-46" value="" style="ellipse;whiteSpace=wrap;html=1;aspect=fixed;fillColor=#d5e8d4;strokeColor=#82b366;" vertex="1" parent="s8dgwefTogZsXasLWYkl-17">
          <mxGeometry x="283" y="166" width="20" height="20" as="geometry" />
        </mxCell>
        <mxCell id="s8dgwefTogZsXasLWYkl-47" style="edgeStyle=orthogonalEdgeStyle;rounded=0;orthogonalLoop=1;jettySize=auto;html=1;entryX=0.5;entryY=1;entryDx=0;entryDy=0;" edge="1" parent="s8dgwefTogZsXasLWYkl-17" source="s8dgwefTogZsXasLWYkl-48" target="s8dgwefTogZsXasLWYkl-46">
          <mxGeometry relative="1" as="geometry" />
        </mxCell>
        <mxCell id="s8dgwefTogZsXasLWYkl-48" value="" style="ellipse;whiteSpace=wrap;html=1;aspect=fixed;fillColor=#D5E8D4;strokeColor=#97D077;" vertex="1" parent="s8dgwefTogZsXasLWYkl-17">
          <mxGeometry x="317" y="216" width="20" height="20" as="geometry" />
        </mxCell>
        <mxCell id="s8dgwefTogZsXasLWYkl-49" style="edgeStyle=orthogonalEdgeStyle;rounded=0;orthogonalLoop=1;jettySize=auto;html=1;entryX=1;entryY=0.5;entryDx=0;entryDy=0;" edge="1" parent="s8dgwefTogZsXasLWYkl-17" source="s8dgwefTogZsXasLWYkl-50" target="s8dgwefTogZsXasLWYkl-48">
          <mxGeometry relative="1" as="geometry" />
        </mxCell>
        <mxCell id="s8dgwefTogZsXasLWYkl-50" value="" style="ellipse;whiteSpace=wrap;html=1;aspect=fixed;fillColor=#D5E8D4;strokeColor=#97D077;" vertex="1" parent="s8dgwefTogZsXasLWYkl-17">
          <mxGeometry x="367" y="216" width="20" height="20" as="geometry" />
        </mxCell>
        <mxCell id="s8dgwefTogZsXasLWYkl-51" style="edgeStyle=orthogonalEdgeStyle;rounded=0;orthogonalLoop=1;jettySize=auto;html=1;entryX=1;entryY=0.5;entryDx=0;entryDy=0;" edge="1" parent="s8dgwefTogZsXasLWYkl-17" source="s8dgwefTogZsXasLWYkl-52" target="s8dgwefTogZsXasLWYkl-50">
          <mxGeometry relative="1" as="geometry" />
        </mxCell>
        <mxCell id="s8dgwefTogZsXasLWYkl-52" value="" style="ellipse;whiteSpace=wrap;html=1;aspect=fixed;fillColor=#D5E8D4;strokeColor=#97D077;" vertex="1" parent="s8dgwefTogZsXasLWYkl-17">
          <mxGeometry x="417" y="216" width="20" height="20" as="geometry" />
        </mxCell>
        <mxCell id="s8dgwefTogZsXasLWYkl-53" value="" style="ellipse;whiteSpace=wrap;html=1;aspect=fixed;fillColor=#d5e8d4;strokeColor=#82b366;" vertex="1" parent="s8dgwefTogZsXasLWYkl-17">
          <mxGeometry x="240" y="166" width="20" height="20" as="geometry" />
        </mxCell>
        <mxCell id="s8dgwefTogZsXasLWYkl-54" style="edgeStyle=orthogonalEdgeStyle;rounded=0;orthogonalLoop=1;jettySize=auto;html=1;entryX=1;entryY=0.5;entryDx=0;entryDy=0;endArrow=none;endFill=0;" edge="1" parent="s8dgwefTogZsXasLWYkl-17" source="s8dgwefTogZsXasLWYkl-56" target="s8dgwefTogZsXasLWYkl-46">
          <mxGeometry relative="1" as="geometry" />
        </mxCell>
        <mxCell id="s8dgwefTogZsXasLWYkl-55" style="edgeStyle=orthogonalEdgeStyle;rounded=0;orthogonalLoop=1;jettySize=auto;html=1;entryX=1;entryY=0.5;entryDx=0;entryDy=0;" edge="1" parent="s8dgwefTogZsXasLWYkl-17" source="s8dgwefTogZsXasLWYkl-56" target="s8dgwefTogZsXasLWYkl-52">
          <mxGeometry relative="1" as="geometry">
            <Array as="points">
              <mxPoint x="457" y="226" />
            </Array>
          </mxGeometry>
        </mxCell>
        <mxCell id="s8dgwefTogZsXasLWYkl-56" value="" style="ellipse;whiteSpace=wrap;html=1;aspect=fixed;fillColor=#97D077;strokeColor=#82b366;" vertex="1" parent="s8dgwefTogZsXasLWYkl-17">
          <mxGeometry x="447" y="166" width="20" height="20" as="geometry" />
        </mxCell>
        <mxCell id="s8dgwefTogZsXasLWYkl-57" style="edgeStyle=orthogonalEdgeStyle;rounded=0;orthogonalLoop=1;jettySize=auto;html=1;entryX=1;entryY=0.5;entryDx=0;entryDy=0;" edge="1" parent="s8dgwefTogZsXasLWYkl-17" source="s8dgwefTogZsXasLWYkl-58" target="s8dgwefTogZsXasLWYkl-65">
          <mxGeometry relative="1" as="geometry" />
        </mxCell>
        <mxCell id="s8dgwefTogZsXasLWYkl-58" value="" style="ellipse;whiteSpace=wrap;html=1;aspect=fixed;fillColor=#d5e8d4;strokeColor=#82b366;" vertex="1" parent="s8dgwefTogZsXasLWYkl-17">
          <mxGeometry x="235" y="517" width="20" height="20" as="geometry" />
        </mxCell>
        <mxCell id="s8dgwefTogZsXasLWYkl-59" style="edgeStyle=orthogonalEdgeStyle;rounded=0;orthogonalLoop=1;jettySize=auto;html=1;entryX=0.5;entryY=1;entryDx=0;entryDy=0;" edge="1" parent="s8dgwefTogZsXasLWYkl-17" source="s8dgwefTogZsXasLWYkl-60" target="s8dgwefTogZsXasLWYkl-58">
          <mxGeometry relative="1" as="geometry" />
        </mxCell>
        <mxCell id="s8dgwefTogZsXasLWYkl-60" value="" style="ellipse;whiteSpace=wrap;html=1;aspect=fixed;fillColor=#D5E8D4;strokeColor=#97D077;" vertex="1" parent="s8dgwefTogZsXasLWYkl-17">
          <mxGeometry x="269" y="567" width="20" height="20" as="geometry" />
        </mxCell>
        <mxCell id="s8dgwefTogZsXasLWYkl-61" style="edgeStyle=orthogonalEdgeStyle;rounded=0;orthogonalLoop=1;jettySize=auto;html=1;entryX=1;entryY=0.5;entryDx=0;entryDy=0;" edge="1" parent="s8dgwefTogZsXasLWYkl-17" source="s8dgwefTogZsXasLWYkl-62" target="s8dgwefTogZsXasLWYkl-60">
          <mxGeometry relative="1" as="geometry" />
        </mxCell>
        <mxCell id="s8dgwefTogZsXasLWYkl-62" value="" style="ellipse;whiteSpace=wrap;html=1;aspect=fixed;fillColor=#D5E8D4;strokeColor=#97D077;" vertex="1" parent="s8dgwefTogZsXasLWYkl-17">
          <mxGeometry x="319" y="567" width="20" height="20" as="geometry" />
        </mxCell>
        <mxCell id="s8dgwefTogZsXasLWYkl-63" style="edgeStyle=orthogonalEdgeStyle;rounded=0;orthogonalLoop=1;jettySize=auto;html=1;entryX=1;entryY=0.5;entryDx=0;entryDy=0;" edge="1" parent="s8dgwefTogZsXasLWYkl-17" source="s8dgwefTogZsXasLWYkl-64" target="s8dgwefTogZsXasLWYkl-62">
          <mxGeometry relative="1" as="geometry" />
        </mxCell>
        <mxCell id="s8dgwefTogZsXasLWYkl-64" value="" style="ellipse;whiteSpace=wrap;html=1;aspect=fixed;fillColor=#D5E8D4;strokeColor=#97D077;" vertex="1" parent="s8dgwefTogZsXasLWYkl-17">
          <mxGeometry x="369" y="567" width="20" height="20" as="geometry" />
        </mxCell>
        <mxCell id="s8dgwefTogZsXasLWYkl-65" value="" style="ellipse;whiteSpace=wrap;html=1;aspect=fixed;fillColor=#d5e8d4;strokeColor=#82b366;" vertex="1" parent="s8dgwefTogZsXasLWYkl-17">
          <mxGeometry x="192" y="517" width="20" height="20" as="geometry" />
        </mxCell>
        <mxCell id="s8dgwefTogZsXasLWYkl-66" style="edgeStyle=orthogonalEdgeStyle;rounded=0;orthogonalLoop=1;jettySize=auto;html=1;entryX=1;entryY=0.5;entryDx=0;entryDy=0;endArrow=none;endFill=0;" edge="1" parent="s8dgwefTogZsXasLWYkl-17" source="s8dgwefTogZsXasLWYkl-68" target="s8dgwefTogZsXasLWYkl-58">
          <mxGeometry relative="1" as="geometry" />
        </mxCell>
        <mxCell id="s8dgwefTogZsXasLWYkl-67" style="edgeStyle=orthogonalEdgeStyle;rounded=0;orthogonalLoop=1;jettySize=auto;html=1;entryX=1;entryY=0.5;entryDx=0;entryDy=0;" edge="1" parent="s8dgwefTogZsXasLWYkl-17" source="s8dgwefTogZsXasLWYkl-68" target="s8dgwefTogZsXasLWYkl-64">
          <mxGeometry relative="1" as="geometry">
            <Array as="points">
              <mxPoint x="409" y="577" />
            </Array>
          </mxGeometry>
        </mxCell>
        <mxCell id="s8dgwefTogZsXasLWYkl-68" value="" style="ellipse;whiteSpace=wrap;html=1;aspect=fixed;fillColor=#97D077;strokeColor=#82b366;" vertex="1" parent="s8dgwefTogZsXasLWYkl-17">
          <mxGeometry x="399" y="517" width="20" height="20" as="geometry" />
        </mxCell>
        <mxCell id="s8dgwefTogZsXasLWYkl-72" value="main(master)" style="text;html=1;align=center;verticalAlign=middle;whiteSpace=wrap;rounded=0;fontSize=11;" vertex="1" parent="s8dgwefTogZsXasLWYkl-17">
          <mxGeometry x="129" y="162" width="116" height="30" as="geometry" />
        </mxCell>
        <mxCell id="s8dgwefTogZsXasLWYkl-73" value="main" style="text;html=1;align=center;verticalAlign=middle;whiteSpace=wrap;rounded=0;fontSize=11;" vertex="1" parent="s8dgwefTogZsXasLWYkl-17">
          <mxGeometry x="117" y="512" width="62" height="30" as="geometry" />
        </mxCell>
        <mxCell id="s8dgwefTogZsXasLWYkl-74" value="my branch" style="text;html=1;align=center;verticalAlign=middle;whiteSpace=wrap;rounded=0;fontSize=11;" vertex="1" parent="s8dgwefTogZsXasLWYkl-17">
          <mxGeometry x="115" y="621.43" width="84" height="30" as="geometry" />
        </mxCell>
        <mxCell id="s8dgwefTogZsXasLWYkl-75" style="edgeStyle=orthogonalEdgeStyle;rounded=0;orthogonalLoop=1;jettySize=auto;html=1;" edge="1" parent="s8dgwefTogZsXasLWYkl-17" source="s8dgwefTogZsXasLWYkl-76">
          <mxGeometry relative="1" as="geometry">
            <mxPoint x="245" y="580" as="targetPoint" />
          </mxGeometry>
        </mxCell>
        <mxCell id="s8dgwefTogZsXasLWYkl-76" value="" style="ellipse;whiteSpace=wrap;html=1;aspect=fixed;fillColor=#FFCC99;strokeColor=#FFB570;" vertex="1" parent="s8dgwefTogZsXasLWYkl-17">
          <mxGeometry x="283" y="626.43" width="20" height="20" as="geometry" />
        </mxCell>
        <mxCell id="s8dgwefTogZsXasLWYkl-77" style="edgeStyle=orthogonalEdgeStyle;rounded=0;orthogonalLoop=1;jettySize=auto;html=1;entryX=1;entryY=0.5;entryDx=0;entryDy=0;" edge="1" parent="s8dgwefTogZsXasLWYkl-17" source="s8dgwefTogZsXasLWYkl-78" target="s8dgwefTogZsXasLWYkl-76">
          <mxGeometry relative="1" as="geometry" />
        </mxCell>
        <mxCell id="s8dgwefTogZsXasLWYkl-78" value="" style="ellipse;whiteSpace=wrap;html=1;aspect=fixed;fillColor=#FFCC99;strokeColor=#FFB570;" vertex="1" parent="s8dgwefTogZsXasLWYkl-17">
          <mxGeometry x="329" y="626.43" width="20" height="20" as="geometry" />
        </mxCell>
        <mxCell id="d4VYcWdYsv8UEWW1yeKA-5" value="" style="verticalLabelPosition=bottom;verticalAlign=top;html=1;shape=mxgraph.basic.8_point_star" vertex="1" parent="s8dgwefTogZsXasLWYkl-17">
          <mxGeometry x="560" y="542" width="53" height="45.43" as="geometry" />
        </mxCell>
        <mxCell id="d4VYcWdYsv8UEWW1yeKA-6" value="충돌해결" style="text;html=1;align=center;verticalAlign=middle;whiteSpace=wrap;rounded=0;" vertex="1" parent="s8dgwefTogZsXasLWYkl-17">
          <mxGeometry x="560" y="593.4300000000001" width="60" height="30" as="geometry" />
        </mxCell>
        <mxCell id="d4VYcWdYsv8UEWW1yeKA-7" style="edgeStyle=orthogonalEdgeStyle;rounded=0;orthogonalLoop=1;jettySize=auto;html=1;entryX=1;entryY=0.5;entryDx=0;entryDy=0;" edge="1" parent="s8dgwefTogZsXasLWYkl-17" source="d4VYcWdYsv8UEWW1yeKA-8" target="d4VYcWdYsv8UEWW1yeKA-15">
          <mxGeometry relative="1" as="geometry" />
        </mxCell>
        <mxCell id="d4VYcWdYsv8UEWW1yeKA-8" value="" style="ellipse;whiteSpace=wrap;html=1;aspect=fixed;fillColor=#d5e8d4;strokeColor=#82b366;" vertex="1" parent="s8dgwefTogZsXasLWYkl-17">
          <mxGeometry x="744" y="514" width="20" height="20" as="geometry" />
        </mxCell>
        <mxCell id="d4VYcWdYsv8UEWW1yeKA-9" style="edgeStyle=orthogonalEdgeStyle;rounded=0;orthogonalLoop=1;jettySize=auto;html=1;entryX=0.5;entryY=1;entryDx=0;entryDy=0;" edge="1" parent="s8dgwefTogZsXasLWYkl-17" source="d4VYcWdYsv8UEWW1yeKA-10" target="d4VYcWdYsv8UEWW1yeKA-8">
          <mxGeometry relative="1" as="geometry" />
        </mxCell>
        <mxCell id="d4VYcWdYsv8UEWW1yeKA-10" value="" style="ellipse;whiteSpace=wrap;html=1;aspect=fixed;fillColor=#D5E8D4;strokeColor=#97D077;" vertex="1" parent="s8dgwefTogZsXasLWYkl-17">
          <mxGeometry x="778" y="564" width="20" height="20" as="geometry" />
        </mxCell>
        <mxCell id="d4VYcWdYsv8UEWW1yeKA-11" style="edgeStyle=orthogonalEdgeStyle;rounded=0;orthogonalLoop=1;jettySize=auto;html=1;entryX=1;entryY=0.5;entryDx=0;entryDy=0;" edge="1" parent="s8dgwefTogZsXasLWYkl-17" source="d4VYcWdYsv8UEWW1yeKA-12" target="d4VYcWdYsv8UEWW1yeKA-10">
          <mxGeometry relative="1" as="geometry" />
        </mxCell>
        <mxCell id="d4VYcWdYsv8UEWW1yeKA-12" value="" style="ellipse;whiteSpace=wrap;html=1;aspect=fixed;fillColor=#D5E8D4;strokeColor=#97D077;" vertex="1" parent="s8dgwefTogZsXasLWYkl-17">
          <mxGeometry x="828" y="564" width="20" height="20" as="geometry" />
        </mxCell>
        <mxCell id="d4VYcWdYsv8UEWW1yeKA-13" style="edgeStyle=orthogonalEdgeStyle;rounded=0;orthogonalLoop=1;jettySize=auto;html=1;entryX=1;entryY=0.5;entryDx=0;entryDy=0;" edge="1" parent="s8dgwefTogZsXasLWYkl-17" source="d4VYcWdYsv8UEWW1yeKA-14" target="d4VYcWdYsv8UEWW1yeKA-12">
          <mxGeometry relative="1" as="geometry" />
        </mxCell>
        <mxCell id="d4VYcWdYsv8UEWW1yeKA-14" value="" style="ellipse;whiteSpace=wrap;html=1;aspect=fixed;fillColor=#D5E8D4;strokeColor=#97D077;" vertex="1" parent="s8dgwefTogZsXasLWYkl-17">
          <mxGeometry x="878" y="564" width="20" height="20" as="geometry" />
        </mxCell>
        <mxCell id="d4VYcWdYsv8UEWW1yeKA-15" value="" style="ellipse;whiteSpace=wrap;html=1;aspect=fixed;fillColor=#d5e8d4;strokeColor=#82b366;" vertex="1" parent="s8dgwefTogZsXasLWYkl-17">
          <mxGeometry x="701" y="514" width="20" height="20" as="geometry" />
        </mxCell>
        <mxCell id="d4VYcWdYsv8UEWW1yeKA-16" style="edgeStyle=orthogonalEdgeStyle;rounded=0;orthogonalLoop=1;jettySize=auto;html=1;entryX=1;entryY=0.5;entryDx=0;entryDy=0;endArrow=none;endFill=0;" edge="1" parent="s8dgwefTogZsXasLWYkl-17" source="d4VYcWdYsv8UEWW1yeKA-18" target="d4VYcWdYsv8UEWW1yeKA-8">
          <mxGeometry relative="1" as="geometry" />
        </mxCell>
        <mxCell id="d4VYcWdYsv8UEWW1yeKA-17" style="edgeStyle=orthogonalEdgeStyle;rounded=0;orthogonalLoop=1;jettySize=auto;html=1;entryX=1;entryY=0.5;entryDx=0;entryDy=0;" edge="1" parent="s8dgwefTogZsXasLWYkl-17" source="d4VYcWdYsv8UEWW1yeKA-18" target="d4VYcWdYsv8UEWW1yeKA-14">
          <mxGeometry relative="1" as="geometry">
            <Array as="points">
              <mxPoint x="918" y="574" />
            </Array>
          </mxGeometry>
        </mxCell>
        <mxCell id="d4VYcWdYsv8UEWW1yeKA-18" value="" style="ellipse;whiteSpace=wrap;html=1;aspect=fixed;fillColor=#97D077;strokeColor=#82b366;" vertex="1" parent="s8dgwefTogZsXasLWYkl-17">
          <mxGeometry x="908" y="514" width="20" height="20" as="geometry" />
        </mxCell>
        <mxCell id="d4VYcWdYsv8UEWW1yeKA-19" style="edgeStyle=orthogonalEdgeStyle;rounded=0;orthogonalLoop=1;jettySize=auto;html=1;" edge="1" parent="s8dgwefTogZsXasLWYkl-17" source="d4VYcWdYsv8UEWW1yeKA-20">
          <mxGeometry relative="1" as="geometry">
            <mxPoint x="754" y="577" as="targetPoint" />
          </mxGeometry>
        </mxCell>
        <mxCell id="d4VYcWdYsv8UEWW1yeKA-20" value="" style="ellipse;whiteSpace=wrap;html=1;aspect=fixed;fillColor=#FFCC99;strokeColor=#FFB570;" vertex="1" parent="s8dgwefTogZsXasLWYkl-17">
          <mxGeometry x="792" y="623.43" width="20" height="20" as="geometry" />
        </mxCell>
        <mxCell id="d4VYcWdYsv8UEWW1yeKA-21" style="edgeStyle=orthogonalEdgeStyle;rounded=0;orthogonalLoop=1;jettySize=auto;html=1;entryX=1;entryY=0.5;entryDx=0;entryDy=0;" edge="1" parent="s8dgwefTogZsXasLWYkl-17" target="d4VYcWdYsv8UEWW1yeKA-20">
          <mxGeometry relative="1" as="geometry">
            <mxPoint x="838.0001284728824" y="633.3793103448277" as="sourcePoint" />
          </mxGeometry>
        </mxCell>
        <mxCell id="d4VYcWdYsv8UEWW1yeKA-28" style="edgeStyle=orthogonalEdgeStyle;rounded=0;orthogonalLoop=1;jettySize=auto;html=1;entryX=1;entryY=0.5;entryDx=0;entryDy=0;" edge="1" parent="s8dgwefTogZsXasLWYkl-17" source="d4VYcWdYsv8UEWW1yeKA-23">
          <mxGeometry relative="1" as="geometry">
            <mxPoint x="858" y="633.4299999999998" as="targetPoint" />
          </mxGeometry>
        </mxCell>
        <mxCell id="d4VYcWdYsv8UEWW1yeKA-23" value="" style="ellipse;whiteSpace=wrap;html=1;aspect=fixed;fillColor=#D5E8D4;strokeColor=#97D077;" vertex="1" parent="s8dgwefTogZsXasLWYkl-17">
          <mxGeometry x="878" y="623.43" width="20" height="20" as="geometry" />
        </mxCell>
        <mxCell id="d4VYcWdYsv8UEWW1yeKA-24" style="edgeStyle=orthogonalEdgeStyle;rounded=0;orthogonalLoop=1;jettySize=auto;html=1;entryX=1;entryY=0.5;entryDx=0;entryDy=0;" edge="1" parent="s8dgwefTogZsXasLWYkl-17" source="d4VYcWdYsv8UEWW1yeKA-25" target="d4VYcWdYsv8UEWW1yeKA-23">
          <mxGeometry relative="1" as="geometry" />
        </mxCell>
        <mxCell id="d4VYcWdYsv8UEWW1yeKA-25" value="" style="ellipse;whiteSpace=wrap;html=1;aspect=fixed;fillColor=#D5E8D4;strokeColor=#97D077;" vertex="1" parent="s8dgwefTogZsXasLWYkl-17">
          <mxGeometry x="928" y="623.43" width="20" height="20" as="geometry" />
        </mxCell>
        <mxCell id="d4VYcWdYsv8UEWW1yeKA-36" style="edgeStyle=orthogonalEdgeStyle;rounded=0;orthogonalLoop=1;jettySize=auto;html=1;entryX=1;entryY=0.5;entryDx=0;entryDy=0;" edge="1" parent="s8dgwefTogZsXasLWYkl-17" source="d4VYcWdYsv8UEWW1yeKA-27" target="d4VYcWdYsv8UEWW1yeKA-35">
          <mxGeometry relative="1" as="geometry" />
        </mxCell>
        <mxCell id="d4VYcWdYsv8UEWW1yeKA-27" value="" style="ellipse;whiteSpace=wrap;html=1;aspect=fixed;fillColor=#97D077;strokeColor=#97D077;" vertex="1" parent="s8dgwefTogZsXasLWYkl-17">
          <mxGeometry x="995" y="623.43" width="20" height="20" as="geometry" />
        </mxCell>
        <mxCell id="d4VYcWdYsv8UEWW1yeKA-30" style="edgeStyle=orthogonalEdgeStyle;rounded=0;orthogonalLoop=1;jettySize=auto;html=1;entryX=1;entryY=0.5;entryDx=0;entryDy=0;" edge="1" parent="s8dgwefTogZsXasLWYkl-17" source="d4VYcWdYsv8UEWW1yeKA-29" target="d4VYcWdYsv8UEWW1yeKA-27">
          <mxGeometry relative="1" as="geometry" />
        </mxCell>
        <mxCell id="d4VYcWdYsv8UEWW1yeKA-29" value="" style="ellipse;whiteSpace=wrap;html=1;aspect=fixed;fillColor=#66B2FF;strokeColor=#0066CC;" vertex="1" parent="s8dgwefTogZsXasLWYkl-17">
          <mxGeometry x="1035" y="623.4300000000001" width="20" height="20" as="geometry" />
        </mxCell>
        <mxCell id="d4VYcWdYsv8UEWW1yeKA-31" value="" style="ellipse;whiteSpace=wrap;html=1;aspect=fixed;fillColor=#FFCC99;strokeColor=#FFB570;" vertex="1" parent="s8dgwefTogZsXasLWYkl-17">
          <mxGeometry x="838" y="623.43" width="20" height="20" as="geometry" />
        </mxCell>
        <mxCell id="d4VYcWdYsv8UEWW1yeKA-37" style="edgeStyle=orthogonalEdgeStyle;rounded=0;orthogonalLoop=1;jettySize=auto;html=1;entryX=1;entryY=0.5;entryDx=0;entryDy=0;" edge="1" parent="s8dgwefTogZsXasLWYkl-17" source="d4VYcWdYsv8UEWW1yeKA-35" target="d4VYcWdYsv8UEWW1yeKA-25">
          <mxGeometry relative="1" as="geometry" />
        </mxCell>
        <mxCell id="d4VYcWdYsv8UEWW1yeKA-35" value="" style="ellipse;whiteSpace=wrap;html=1;aspect=fixed;fillColor=#D5E8D4;strokeColor=#97D077;" vertex="1" parent="s8dgwefTogZsXasLWYkl-17">
          <mxGeometry x="963" y="623.43" width="20" height="20" as="geometry" />
        </mxCell>
        <mxCell id="d4VYcWdYsv8UEWW1yeKA-38" value="my branch" style="text;html=1;align=center;verticalAlign=middle;whiteSpace=wrap;rounded=0;fontSize=11;" vertex="1" parent="s8dgwefTogZsXasLWYkl-17">
          <mxGeometry x="664" y="613.43" width="84" height="30" as="geometry" />
        </mxCell>
        <mxCell id="d4VYcWdYsv8UEWW1yeKA-39" value="main" style="text;html=1;align=center;verticalAlign=middle;whiteSpace=wrap;rounded=0;fontSize=11;" vertex="1" parent="s8dgwefTogZsXasLWYkl-17">
          <mxGeometry x="632" y="512" width="62" height="30" as="geometry" />
        </mxCell>
        <mxCell id="d4VYcWdYsv8UEWW1yeKA-41" style="edgeStyle=orthogonalEdgeStyle;rounded=0;orthogonalLoop=1;jettySize=auto;html=1;entryX=1;entryY=0.5;entryDx=0;entryDy=0;" edge="1" parent="s8dgwefTogZsXasLWYkl-17" source="d4VYcWdYsv8UEWW1yeKA-42" target="d4VYcWdYsv8UEWW1yeKA-49">
          <mxGeometry relative="1" as="geometry" />
        </mxCell>
        <mxCell id="d4VYcWdYsv8UEWW1yeKA-42" value="" style="ellipse;whiteSpace=wrap;html=1;aspect=fixed;fillColor=#d5e8d4;strokeColor=#82b366;" vertex="1" parent="s8dgwefTogZsXasLWYkl-17">
          <mxGeometry x="756" y="166" width="20" height="20" as="geometry" />
        </mxCell>
        <mxCell id="d4VYcWdYsv8UEWW1yeKA-43" style="edgeStyle=orthogonalEdgeStyle;rounded=0;orthogonalLoop=1;jettySize=auto;html=1;entryX=0.5;entryY=1;entryDx=0;entryDy=0;" edge="1" parent="s8dgwefTogZsXasLWYkl-17" source="d4VYcWdYsv8UEWW1yeKA-44" target="d4VYcWdYsv8UEWW1yeKA-42">
          <mxGeometry relative="1" as="geometry" />
        </mxCell>
        <mxCell id="d4VYcWdYsv8UEWW1yeKA-44" value="" style="ellipse;whiteSpace=wrap;html=1;aspect=fixed;fillColor=#D5E8D4;strokeColor=#97D077;" vertex="1" parent="s8dgwefTogZsXasLWYkl-17">
          <mxGeometry x="790" y="216" width="20" height="20" as="geometry" />
        </mxCell>
        <mxCell id="d4VYcWdYsv8UEWW1yeKA-45" style="edgeStyle=orthogonalEdgeStyle;rounded=0;orthogonalLoop=1;jettySize=auto;html=1;entryX=1;entryY=0.5;entryDx=0;entryDy=0;" edge="1" parent="s8dgwefTogZsXasLWYkl-17" source="d4VYcWdYsv8UEWW1yeKA-46" target="d4VYcWdYsv8UEWW1yeKA-44">
          <mxGeometry relative="1" as="geometry" />
        </mxCell>
        <mxCell id="d4VYcWdYsv8UEWW1yeKA-46" value="" style="ellipse;whiteSpace=wrap;html=1;aspect=fixed;fillColor=#D5E8D4;strokeColor=#97D077;" vertex="1" parent="s8dgwefTogZsXasLWYkl-17">
          <mxGeometry x="840" y="216" width="20" height="20" as="geometry" />
        </mxCell>
        <mxCell id="d4VYcWdYsv8UEWW1yeKA-47" style="edgeStyle=orthogonalEdgeStyle;rounded=0;orthogonalLoop=1;jettySize=auto;html=1;entryX=1;entryY=0.5;entryDx=0;entryDy=0;" edge="1" parent="s8dgwefTogZsXasLWYkl-17" source="d4VYcWdYsv8UEWW1yeKA-48" target="d4VYcWdYsv8UEWW1yeKA-46">
          <mxGeometry relative="1" as="geometry" />
        </mxCell>
        <mxCell id="d4VYcWdYsv8UEWW1yeKA-48" value="" style="ellipse;whiteSpace=wrap;html=1;aspect=fixed;fillColor=#D5E8D4;strokeColor=#97D077;" vertex="1" parent="s8dgwefTogZsXasLWYkl-17">
          <mxGeometry x="890" y="216" width="20" height="20" as="geometry" />
        </mxCell>
        <mxCell id="d4VYcWdYsv8UEWW1yeKA-49" value="" style="ellipse;whiteSpace=wrap;html=1;aspect=fixed;fillColor=#d5e8d4;strokeColor=#82b366;" vertex="1" parent="s8dgwefTogZsXasLWYkl-17">
          <mxGeometry x="713" y="166" width="20" height="20" as="geometry" />
        </mxCell>
        <mxCell id="d4VYcWdYsv8UEWW1yeKA-50" style="edgeStyle=orthogonalEdgeStyle;rounded=0;orthogonalLoop=1;jettySize=auto;html=1;entryX=1;entryY=0.5;entryDx=0;entryDy=0;endArrow=none;endFill=0;" edge="1" parent="s8dgwefTogZsXasLWYkl-17" source="d4VYcWdYsv8UEWW1yeKA-52" target="d4VYcWdYsv8UEWW1yeKA-42">
          <mxGeometry relative="1" as="geometry" />
        </mxCell>
        <mxCell id="d4VYcWdYsv8UEWW1yeKA-51" style="edgeStyle=orthogonalEdgeStyle;rounded=0;orthogonalLoop=1;jettySize=auto;html=1;entryX=1;entryY=0.5;entryDx=0;entryDy=0;" edge="1" parent="s8dgwefTogZsXasLWYkl-17" source="d4VYcWdYsv8UEWW1yeKA-52" target="d4VYcWdYsv8UEWW1yeKA-48">
          <mxGeometry relative="1" as="geometry">
            <Array as="points">
              <mxPoint x="930" y="226" />
            </Array>
          </mxGeometry>
        </mxCell>
        <mxCell id="d4VYcWdYsv8UEWW1yeKA-52" value="" style="ellipse;whiteSpace=wrap;html=1;aspect=fixed;fillColor=#97D077;strokeColor=#82b366;" vertex="1" parent="s8dgwefTogZsXasLWYkl-17">
          <mxGeometry x="920" y="166" width="20" height="20" as="geometry" />
        </mxCell>
        <mxCell id="d4VYcWdYsv8UEWW1yeKA-53" value="" style="rounded=1;arcSize=10;dashed=1;fillColor=none;gradientColor=none;dashPattern=8 3 1 3;strokeWidth=2;strokeColor=#3399FF;" vertex="1" parent="s8dgwefTogZsXasLWYkl-17">
          <mxGeometry x="744" y="253" width="319" height="59.5" as="geometry" />
        </mxCell>
        <mxCell id="d4VYcWdYsv8UEWW1yeKA-67" style="edgeStyle=orthogonalEdgeStyle;rounded=0;orthogonalLoop=1;jettySize=auto;html=1;" edge="1" parent="s8dgwefTogZsXasLWYkl-17" source="d4VYcWdYsv8UEWW1yeKA-54">
          <mxGeometry relative="1" as="geometry">
            <mxPoint x="768.5" y="230.33333333333337" as="targetPoint" />
          </mxGeometry>
        </mxCell>
        <mxCell id="d4VYcWdYsv8UEWW1yeKA-54" value="" style="ellipse;whiteSpace=wrap;html=1;aspect=fixed;fillColor=#FFCC99;strokeColor=#FFB570;" vertex="1" parent="s8dgwefTogZsXasLWYkl-17">
          <mxGeometry x="788" y="276.42999999999995" width="20" height="20" as="geometry" />
        </mxCell>
        <mxCell id="d4VYcWdYsv8UEWW1yeKA-55" style="edgeStyle=orthogonalEdgeStyle;rounded=0;orthogonalLoop=1;jettySize=auto;html=1;entryX=1;entryY=0.5;entryDx=0;entryDy=0;" edge="1" parent="s8dgwefTogZsXasLWYkl-17" target="d4VYcWdYsv8UEWW1yeKA-54">
          <mxGeometry relative="1" as="geometry">
            <mxPoint x="834.0001284728824" y="286.3793103448277" as="sourcePoint" />
          </mxGeometry>
        </mxCell>
        <mxCell id="d4VYcWdYsv8UEWW1yeKA-56" style="edgeStyle=orthogonalEdgeStyle;rounded=0;orthogonalLoop=1;jettySize=auto;html=1;entryX=1;entryY=0.5;entryDx=0;entryDy=0;" edge="1" parent="s8dgwefTogZsXasLWYkl-17" source="d4VYcWdYsv8UEWW1yeKA-57">
          <mxGeometry relative="1" as="geometry">
            <mxPoint x="854" y="286.42999999999984" as="targetPoint" />
          </mxGeometry>
        </mxCell>
        <mxCell id="d4VYcWdYsv8UEWW1yeKA-57" value="" style="ellipse;whiteSpace=wrap;html=1;aspect=fixed;fillColor=#D5E8D4;strokeColor=#97D077;" vertex="1" parent="s8dgwefTogZsXasLWYkl-17">
          <mxGeometry x="874" y="276.42999999999995" width="20" height="20" as="geometry" />
        </mxCell>
        <mxCell id="d4VYcWdYsv8UEWW1yeKA-58" style="edgeStyle=orthogonalEdgeStyle;rounded=0;orthogonalLoop=1;jettySize=auto;html=1;entryX=1;entryY=0.5;entryDx=0;entryDy=0;" edge="1" parent="s8dgwefTogZsXasLWYkl-17" source="d4VYcWdYsv8UEWW1yeKA-59" target="d4VYcWdYsv8UEWW1yeKA-57">
          <mxGeometry relative="1" as="geometry" />
        </mxCell>
        <mxCell id="d4VYcWdYsv8UEWW1yeKA-59" value="" style="ellipse;whiteSpace=wrap;html=1;aspect=fixed;fillColor=#D5E8D4;strokeColor=#97D077;" vertex="1" parent="s8dgwefTogZsXasLWYkl-17">
          <mxGeometry x="924" y="276.42999999999995" width="20" height="20" as="geometry" />
        </mxCell>
        <mxCell id="d4VYcWdYsv8UEWW1yeKA-60" style="edgeStyle=orthogonalEdgeStyle;rounded=0;orthogonalLoop=1;jettySize=auto;html=1;entryX=1;entryY=0.5;entryDx=0;entryDy=0;" edge="1" parent="s8dgwefTogZsXasLWYkl-17" source="d4VYcWdYsv8UEWW1yeKA-61" target="d4VYcWdYsv8UEWW1yeKA-66">
          <mxGeometry relative="1" as="geometry" />
        </mxCell>
        <mxCell id="d4VYcWdYsv8UEWW1yeKA-61" value="" style="ellipse;whiteSpace=wrap;html=1;aspect=fixed;fillColor=#97D077;strokeColor=#97D077;" vertex="1" parent="s8dgwefTogZsXasLWYkl-17">
          <mxGeometry x="991" y="276.42999999999995" width="20" height="20" as="geometry" />
        </mxCell>
        <mxCell id="d4VYcWdYsv8UEWW1yeKA-62" style="edgeStyle=orthogonalEdgeStyle;rounded=0;orthogonalLoop=1;jettySize=auto;html=1;entryX=1;entryY=0.5;entryDx=0;entryDy=0;" edge="1" parent="s8dgwefTogZsXasLWYkl-17" source="d4VYcWdYsv8UEWW1yeKA-63" target="d4VYcWdYsv8UEWW1yeKA-61">
          <mxGeometry relative="1" as="geometry" />
        </mxCell>
        <mxCell id="d4VYcWdYsv8UEWW1yeKA-63" value="" style="ellipse;whiteSpace=wrap;html=1;aspect=fixed;fillColor=#66B2FF;strokeColor=#0066CC;" vertex="1" parent="s8dgwefTogZsXasLWYkl-17">
          <mxGeometry x="1031" y="276.43000000000006" width="20" height="20" as="geometry" />
        </mxCell>
        <mxCell id="d4VYcWdYsv8UEWW1yeKA-64" value="" style="ellipse;whiteSpace=wrap;html=1;aspect=fixed;fillColor=#FFCC99;strokeColor=#FFB570;" vertex="1" parent="s8dgwefTogZsXasLWYkl-17">
          <mxGeometry x="834" y="276.42999999999995" width="20" height="20" as="geometry" />
        </mxCell>
        <mxCell id="d4VYcWdYsv8UEWW1yeKA-65" style="edgeStyle=orthogonalEdgeStyle;rounded=0;orthogonalLoop=1;jettySize=auto;html=1;entryX=1;entryY=0.5;entryDx=0;entryDy=0;" edge="1" parent="s8dgwefTogZsXasLWYkl-17" source="d4VYcWdYsv8UEWW1yeKA-66" target="d4VYcWdYsv8UEWW1yeKA-59">
          <mxGeometry relative="1" as="geometry" />
        </mxCell>
        <mxCell id="d4VYcWdYsv8UEWW1yeKA-66" value="" style="ellipse;whiteSpace=wrap;html=1;aspect=fixed;fillColor=#D5E8D4;strokeColor=#97D077;" vertex="1" parent="s8dgwefTogZsXasLWYkl-17">
          <mxGeometry x="959" y="276.42999999999995" width="20" height="20" as="geometry" />
        </mxCell>
        <mxCell id="d4VYcWdYsv8UEWW1yeKA-68" value="&lt;div&gt;PR - Feat/B&amp;nbsp;&lt;/div&gt;( from&amp;nbsp;&lt;div&gt;my branch )&lt;/div&gt;" style="text;html=1;align=center;verticalAlign=middle;whiteSpace=wrap;rounded=0;fontSize=11;" vertex="1" parent="s8dgwefTogZsXasLWYkl-17">
          <mxGeometry x="637" y="267.74999999999994" width="84" height="30" as="geometry" />
        </mxCell>
        <mxCell id="d4VYcWdYsv8UEWW1yeKA-69" style="edgeStyle=orthogonalEdgeStyle;rounded=0;orthogonalLoop=1;jettySize=auto;html=1;entryX=0.858;entryY=1.034;entryDx=0;entryDy=0;entryPerimeter=0;exitX=0.843;exitY=0.006;exitDx=0;exitDy=0;exitPerimeter=0;strokeWidth=3;strokeColor=#3399FF;" edge="1" parent="s8dgwefTogZsXasLWYkl-17" source="d4VYcWdYsv8UEWW1yeKA-40" target="d4VYcWdYsv8UEWW1yeKA-53">
          <mxGeometry relative="1" as="geometry" />
        </mxCell>
        <mxCell id="d4VYcWdYsv8UEWW1yeKA-70" value="Pull Request" style="edgeLabel;html=1;align=center;verticalAlign=middle;resizable=0;points=[];" vertex="1" connectable="0" parent="d4VYcWdYsv8UEWW1yeKA-69">
          <mxGeometry x="0.1394" relative="1" as="geometry">
            <mxPoint as="offset" />
          </mxGeometry>
        </mxCell>
        <mxCell id="cR_HWSpSlyJlR3ercpwE-0" value="4" style="text;html=1;align=center;verticalAlign=middle;whiteSpace=wrap;rounded=0;fontSize=28;fontColor=#FF3333;" vertex="1" parent="s8dgwefTogZsXasLWYkl-17">
          <mxGeometry x="460" y="567" width="60" height="30" as="geometry" />
        </mxCell>
        <mxCell id="cR_HWSpSlyJlR3ercpwE-1" value="5" style="text;html=1;align=center;verticalAlign=middle;whiteSpace=wrap;rounded=0;fontSize=28;fontColor=#FF3333;" vertex="1" parent="s8dgwefTogZsXasLWYkl-17">
          <mxGeometry x="530" y="593.43" width="60" height="30" as="geometry" />
        </mxCell>
        <mxCell id="cR_HWSpSlyJlR3ercpwE-2" value="6" style="text;html=1;align=center;verticalAlign=middle;whiteSpace=wrap;rounded=0;fontSize=28;fontColor=#FF3333;" vertex="1" parent="s8dgwefTogZsXasLWYkl-17">
          <mxGeometry x="940" y="422" width="60" height="30" as="geometry" />
        </mxCell>
      </root>
    </mxGraphModel>
  </diagram>
</mxfile>
